<?xml version="1.0" standalone="no"?>
<!DOCTYPE svg PUBLIC "-//W3C//DTD SVG 20010904//EN"
 "http://www.w3.org/TR/2001/REC-SVG-20010904/DTD/svg10.dtd">
<svg version="1.0" xmlns="http://www.w3.org/2000/svg"
 width="830.000000pt" height="796.000000pt" viewBox="0 0 830.000000 796.000000"
 preserveAspectRatio="xMidYMid meet">
<metadata>
Created by potrace 1.16, written by Peter Selinger 2001-2019
</metadata>
<g transform="translate(0.000000,796.000000) scale(0.100000,-0.100000)"
fill="#000000" stroke="none">
<path d="M3985 7834 c-82 -64 -387 -298 -677 -521 -451 -346 -527 -408 -523
-427 5 -25 54 -377 86 -625 l23 -174 152 -114 c84 -62 155 -113 158 -113 3 0
6 65 6 144 l0 143 123 46 c67 25 130 48 140 52 16 7 17 -5 17 -163 l0 -171
-100 -53 c-55 -29 -100 -56 -100 -59 0 -4 67 -57 149 -118 l148 -111 -29 -113
c-99 -376 -195 -1066 -283 -2032 -51 -562 -62 -743 -54 -880 4 -71 12 -269 18
-440 6 -170 14 -385 17 -476 l6 -167 -28 -6 c-16 -3 -68 -8 -116 -12 -88 -6
-88 -6 -88 17 0 13 7 123 15 244 8 121 19 294 25 385 6 91 24 341 40 555 100
1301 223 2333 331 2757 10 42 19 83 19 91 0 9 -156 132 -347 274 -191 142
-431 320 -533 396 l-185 138 -3 -2475 -2 -2475 -58 -11 c-31 -6 -67 -14 -79
-17 l-23 -5 -2 2491 -3 2492 -165 -122 c-91 -68 -320 -237 -510 -377 -190
-140 -353 -262 -363 -271 -17 -16 -16 -23 12 -141 147 -616 266 -1984 331
-3785 5 -154 11 -322 12 -374 l2 -94 -64 -24 c-568 -208 -979 -462 -1253 -771
-75 -84 -187 -246 -212 -305 l-15 -37 4151 0 4150 0 -6 23 c-15 50 -76 169
-123 239 -231 341 -692 648 -1274 848 l-68 24 0 560 c0 1406 79 2649 201 3156
l20 85 -48 42 c-26 23 -226 188 -443 367 l-395 325 -3 -2179 c-1 -1521 -5
-2180 -13 -2180 -5 0 -29 4 -52 9 -23 6 -54 12 -69 16 l-28 5 -2 2165 -3 2165
-500 -331 c-275 -182 -504 -335 -509 -340 -5 -4 -2 -49 7 -106 75 -451 148
-1624 182 -2908 3 -115 8 -284 11 -374 l6 -164 -86 5 c-47 2 -88 6 -90 9 -2 2
0 180 5 394 5 233 4 489 -1 635 -6 135 -14 369 -20 520 -6 151 -13 301 -16
332 l-6 57 -84 28 -84 27 0 203 0 203 70 0 70 0 0 59 c0 55 -28 406 -50 631
-14 135 -36 280 -60 402 -11 53 -20 101 -20 107 0 6 48 43 108 82 59 39 111
75 116 79 4 5 -32 21 -80 36 -49 16 -90 29 -92 30 -7 4 63 354 71 354 6 0 62
-16 125 -36 l115 -37 -7 -66 c-3 -36 -9 -97 -13 -136 l-6 -69 29 18 c16 11 44
29 61 40 38 24 33 2 68 301 30 249 88 681 137 1017 18 125 30 229 28 231 -3 2
-267 212 -588 468 -321 255 -592 470 -603 478 -19 13 -19 -16 -19 -3173 l0
-3186 -60 0 -60 0 0 3230 c0 1777 -3 3230 -7 3230 -5 0 -75 -52 -158 -116z
m-5 -898 l0 -225 -82 -32 c-46 -17 -111 -42 -145 -55 l-63 -24 0 218 0 218
138 62 c75 33 140 61 145 61 4 1 7 -100 7 -223z m638 139 l142 -80 0 -208 0
-207 -150 77 -150 78 0 213 c0 118 4 212 8 210 4 -1 72 -39 150 -83z m635
-310 c48 -23 57 -31 57 -54 -1 -42 -36 -341 -41 -346 -4 -4 -286 99 -294 107
-2 2 31 386 35 405 0 2 121 -53 243 -112z m-1802 -98 c21 -105 34 -195 31
-198 -9 -9 -274 -111 -277 -107 -3 4 -78 330 -79 346 -1 12 274 162 283 155 3
-2 21 -90 42 -196z m1134 -186 l110 -59 3 -206 c1 -113 1 -206 -1 -206 -5 0
-211 94 -224 103 -10 6 -13 61 -13 218 0 115 3 209 8 209 4 0 57 -27 117 -59z
m-605 -174 l0 -223 -122 -57 c-68 -32 -126 -57 -131 -57 -4 0 -6 97 -5 216 l3
216 120 64 c66 35 123 64 128 64 4 0 7 -100 7 -223z m1140 -69 c89 -35 130
-56 130 -67 0 -19 -52 -405 -55 -409 -3 -4 -238 89 -249 99 -5 4 -4 71 3 156
17 227 23 273 32 273 4 0 67 -23 139 -52z m-532 -393 l112 -70 0 -208 0 -207
-52 30 c-29 17 -83 47 -120 67 l-68 37 0 214 c0 117 4 212 8 210 5 -1 59 -34
120 -73z m-610 -161 l-3 -226 -95 -34 c-52 -19 -103 -37 -112 -40 -17 -5 -18
10 -18 213 l0 219 108 46 c59 26 110 47 115 47 4 1 6 -101 5 -225z m-1240 -65
l52 -22 0 -153 c0 -85 -3 -154 -7 -154 -5 0 -48 11 -98 23 l-90 23 -3 172 -2
172 47 -19 c27 -11 72 -29 101 -42z m455 -208 c55 -30 97 -59 97 -67 0 -14
-50 -247 -54 -251 -1 -1 -51 13 -111 31 l-110 33 3 149 c1 82 5 159 8 172 l5
23 32 -19 c18 -11 76 -43 130 -71z m1379 -170 l103 -58 3 -207 c1 -113 0 -206
-3 -206 -2 0 -52 24 -110 52 l-105 53 0 212 c0 117 2 213 4 213 3 0 51 -26
108 -59z m-592 -185 l0 -224 -67 -27 c-38 -15 -89 -36 -115 -46 l-48 -19 0
219 0 218 108 51 c59 28 110 51 115 52 4 0 7 -101 7 -224z m-1189 -11 c1 -104
-2 -219 -5 -222 -2 -2 -46 7 -99 19 l-97 21 0 173 0 172 100 -41 100 -41 1
-81z m3659 -142 c0 -73 -2 -133 -5 -133 -10 0 -161 62 -168 69 -5 5 -5 69 -1
144 l7 135 83 -41 84 -41 0 -133z m-3331 77 l93 -23 -5 -51 c-4 -28 -9 -93
-13 -143 -6 -76 -10 -93 -23 -93 -9 1 -52 16 -96 34 l-80 32 -3 138 c-2 128
-1 137 15 133 10 -3 60 -15 112 -27z m3626 -92 l105 -53 0 -122 c0 -68 -3
-123 -7 -123 -5 1 -53 27 -108 59 l-100 59 -3 116 c-1 64 0 116 3 116 2 0 52
-24 110 -52z m-4050 -195 c49 -20 92 -40 95 -44 3 -4 4 -74 2 -157 l-3 -149
-99 25 -100 24 0 169 c0 93 3 169 7 169 4 0 48 -17 98 -37z m3672 0 l83 -38 0
-132 c0 -88 -4 -133 -11 -133 -6 0 -44 14 -85 31 l-74 31 0 86 c0 48 -3 111
-6 140 -4 28 -3 52 2 52 5 0 46 -17 91 -37z m-1794 -101 l77 -64 0 -204 c0
-169 -2 -204 -13 -197 -8 4 -50 35 -95 68 l-81 60 -1 214 c0 202 1 213 18 200
9 -7 52 -42 95 -77z m-593 -157 l0 -226 -96 -44 c-53 -25 -101 -45 -105 -45
-6 0 -8 94 -7 217 l3 216 100 53 c55 30 101 54 103 54 1 0 2 -101 2 -225z
m-913 104 c43 -17 81 -35 86 -38 6 -6 -11 -321 -18 -329 -1 -2 -46 19 -100 45
l-97 48 6 50 c3 28 8 99 12 158 5 83 10 107 19 103 8 -3 49 -19 92 -37z m3633
-33 l105 -52 3 -128 3 -128 -43 24 c-24 14 -76 44 -115 67 l-73 42 0 114 c0
63 3 115 8 114 4 0 54 -24 112 -53z m-3099 -208 c20 -260 27 -231 -61 -245
-41 -6 -87 -12 -102 -12 l-28 -1 0 173 0 172 83 47 c45 26 85 48 88 48 3 0 12
-82 20 -182z m2769 12 l80 -40 0 -136 c0 -75 -3 -134 -8 -132 -4 2 -41 16 -82
33 -41 16 -78 34 -82 40 -12 16 -10 275 2 275 6 0 46 -18 90 -40z m-3673 -91
c43 -17 81 -35 85 -38 8 -7 14 -299 7 -306 -4 -4 -35 3 -161 36 l-38 10 0 170
c0 144 2 170 14 166 8 -3 50 -20 93 -38z m4007 -99 l106 -49 0 -127 c0 -109
-2 -125 -15 -120 -58 22 -192 81 -202 89 -15 11 -19 257 -4 257 5 0 57 -22
115 -50z m-3685 -40 l73 -14 -7 -125 c-7 -140 -11 -161 -29 -161 -7 0 -40 9
-74 21 l-62 21 0 140 c0 108 3 139 13 135 6 -2 45 -10 86 -17z m1549 -95 l81
-60 1 -213 0 -213 -22 12 c-12 7 -55 36 -95 66 l-73 54 0 215 c0 177 2 214 13
207 8 -4 50 -35 95 -68z m-588 -179 l0 -224 -79 -41 c-43 -22 -82 -41 -85 -41
-4 0 -5 97 -4 216 l3 217 75 48 c41 26 78 48 83 48 4 1 7 -100 7 -223z m2395
117 l75 -37 0 -134 c0 -153 12 -142 -108 -93 -66 27 -67 28 -66 64 2 183 5
237 14 237 5 0 43 -17 85 -37z m-2755 -59 c0 -3 9 -87 21 -186 12 -98 19 -181
18 -183 -2 -2 -41 -6 -86 -10 l-83 -8 0 180 0 180 53 16 c58 17 77 20 77 11z
m-882 -135 l52 -22 1 -126 c1 -126 0 -173 -6 -179 -3 -3 -109 22 -162 39 l-33
11 0 169 0 169 48 -19 c26 -11 71 -29 100 -42z m3942 -5 l80 -37 0 -124 c0
-70 -4 -123 -9 -121 -5 2 -45 23 -90 48 l-81 45 0 113 c0 71 4 112 10 112 6 0
47 -16 90 -36z m-3610 -240 l0 -166 -87 7 c-49 4 -90 10 -93 12 -3 3 -5 74 -5
159 l0 154 93 0 92 0 0 -166z m3297 59 l82 -38 1 -137 0 -137 -77 31 c-43 17
-81 34 -84 37 -10 9 -21 281 -12 281 4 0 45 -17 90 -37z m-1827 -148 l70 -46
0 -246 c0 -192 -3 -244 -12 -240 -7 2 -41 14 -75 27 l-63 23 0 263 c0 145 2
264 5 264 2 0 36 -20 75 -45z m-560 -215 l0 -220 -37 -23 c-21 -13 -59 -35
-85 -50 l-48 -28 0 219 0 219 78 52 c42 28 80 51 85 51 4 0 7 -99 7 -220z
m2688 148 l62 -23 0 -127 0 -128 -75 37 -75 37 0 113 c0 84 3 113 13 113 6 0
40 -10 75 -22z m-3971 -55 c48 -20 90 -37 91 -39 5 -3 2 -297 -2 -302 -2 -2
-47 7 -100 19 l-96 23 0 168 c0 93 4 168 9 168 5 0 49 -16 98 -37z m963 -198
c0 -246 14 -216 -107 -233 l-63 -9 0 217 0 217 58 10 c31 6 69 11 85 12 l27 1
0 -215z m1220 181 l55 -12 3 -203 2 -203 -67 7 c-36 4 -72 9 -80 12 -10 4 -13
49 -13 209 l0 204 23 0 c12 -1 47 -7 77 -14z m-1892 -183 l-3 -148 -65 0 -65
0 -3 148 -3 147 71 0 71 0 -3 -147z m3377 85 l85 -41 0 -134 c0 -73 -1 -133
-3 -133 -2 0 -41 15 -88 34 l-84 34 -1 141 c-1 78 0 141 2 141 2 0 42 -19 89
-42z m301 -240 l64 -23 0 -127 0 -128 -75 37 -75 37 0 113 c0 73 4 113 11 113
5 0 39 -10 75 -22z m-3961 -121 l80 -34 5 -99 c3 -54 4 -124 2 -155 l-4 -56
-99 25 -99 24 0 170 c0 157 1 169 18 164 9 -3 53 -21 97 -39z m3668 -24 l77
-37 0 -133 c0 -100 -3 -133 -12 -132 -7 0 -46 15 -87 32 l-74 32 -1 137 c-1
86 3 138 9 138 6 0 45 -17 88 -37z m-2395 -220 l-3 -226 -82 -38 -83 -38 0
218 0 219 78 45 c42 25 80 45 85 46 4 1 6 -101 5 -226z m-990 44 l3 -148 -68
3 -68 3 -3 134 c-1 74 0 141 3 148 3 10 22 13 67 11 l63 -3 3 -148z m1914 67
c4 -3 8 -97 8 -210 l0 -205 -22 7 c-13 4 -45 15 -73 24 l-50 17 -3 211 -2 211
67 -25 c37 -14 71 -28 75 -30z m-356 24 l64 -23 0 -208 0 -208 -22 7 c-13 4
-45 15 -73 24 l-50 17 -3 206 c-2 144 1 207 8 207 6 0 40 -10 76 -22z m-886
-218 l0 -200 -69 0 -68 0 -6 193 c-3 105 -3 195 0 200 2 4 35 7 74 7 l69 0 0
-200z m3002 38 l68 -22 0 -128 0 -128 -75 37 -75 37 0 113 c0 62 3 113 7 113
4 0 37 -10 75 -22z m-292 -118 l80 -40 0 -134 0 -134 -77 30 c-43 16 -82 33
-86 37 -14 13 -21 281 -8 281 6 0 47 -18 91 -40z m-3679 -59 l94 -40 3 -156
c2 -146 1 -156 -15 -151 -10 2 -37 10 -60 15 -24 6 -61 16 -83 21 l-40 11 0
169 c0 94 2 170 3 170 2 0 46 -18 98 -39z m299 -206 l0 -145 -70 0 -70 0 0
145 0 145 70 0 70 0 0 -145z m3698 -15 l72 -12 0 -124 c0 -85 -4 -124 -11
-124 -7 0 -47 10 -90 22 l-79 21 0 112 c0 113 3 127 23 120 7 -2 45 -9 85 -15z
m-323 -102 l85 -42 0 -133 c0 -73 -1 -133 -2 -133 -2 0 -41 15 -88 33 l-85 34
0 141 c0 78 1 142 2 142 2 0 41 -19 88 -42z"/>
</g>
</svg>
