<svg width="493" height="326" viewBox="0 0 493 326" fill="none" xmlns="http://www.w3.org/2000/svg">
<path d="M86.48 9.36481L78.9667 19.2851H47.2267C15.4867 19.2851 15.3333 19.2851 14.5667 22.359C12.88 29.3451 0 100.743 0 103.258C0 105.214 1.07333 105.913 3.98667 105.913C7.66667 105.913 7.66667 106.053 5.52 108.987C4.14 110.663 3.06667 112.62 3.06667 113.178C3.06667 114.995 11.96 118.628 13.0333 117.091C13.4933 116.252 14.4133 115.693 15.0267 115.693C15.64 115.693 15.9467 155.654 15.64 204.417L15.3333 293.141H9.2H2.91333L3.37333 309.488L3.83333 325.975H247.633H491.433L491.893 309.768C492.353 294.119 492.2 293.42 488.98 292.721C486.373 292.023 485.913 291.185 486.68 288.39C487.14 286.434 486.987 284.478 486.067 284.059C485.3 283.64 484.533 281.963 484.533 280.426C484.533 278.749 483.46 277.771 481.467 277.771C478.553 277.771 478.4 276.793 478.4 249.128C478.4 221.603 478.553 220.485 481.467 220.485C483.92 220.485 484.687 219.228 485.453 213.359C486.22 208.05 487.293 205.954 489.287 205.535C490.973 205.116 492.2 204.277 492.2 203.718C492.2 203.02 484.073 196.872 474.26 189.886C460 179.686 455.4 177.171 451.413 177.171H446.353L445.893 142.241C445.587 122.959 445.893 107.31 446.353 107.31C446.813 107.31 450.8 111.362 455.247 116.392C459.693 121.422 463.68 125.474 463.987 125.474C466.133 125.474 472.267 121.981 472.267 120.584C472.267 119.745 469.813 116.392 466.9 113.318C463.987 110.105 461.533 107.17 461.533 106.751C461.533 106.332 463.527 105.913 465.98 105.913C468.587 105.913 470.887 105.494 471.193 104.795C471.653 104.236 467.973 84.9545 463.22 61.9004L454.633 19.9837L418.293 19.5645L382.107 19.2851L376.433 12.9976C373.367 9.50453 370.453 6.71008 369.84 6.71008C369.227 6.71008 366.773 9.50453 364.167 12.9976L359.567 19.2851H237.36H115.153L106.413 9.78397C101.66 4.61425 96.9067 0.282863 95.8333 0.00341852C94.9133 -0.136304 90.62 4.05536 86.48 9.36481ZM125.273 37.1695C150.42 65.2537 185.993 104.655 191.36 110.384C192.893 112.061 193.047 112.899 191.973 112.899C190.9 112.899 184.46 106.472 177.56 98.787C170.507 90.9626 159.313 78.5273 152.567 70.9823C145.82 63.4373 130.64 46.5309 118.987 33.397C107.333 20.2631 97.06 9.64425 96.4467 9.78397C95.22 10.2031 89.24 17.4687 36.0333 82.719C14.72 108.987 7.51333 116.811 9.50667 111.502C10.8867 107.729 95.68 5.45258 96.7533 6.1512C97.52 6.57036 110.4 20.5426 125.273 37.1695ZM399.28 44.4351C412.773 59.3854 433.32 82.2998 445.127 95.1542C456.78 108.148 465.98 119.186 465.367 119.606C464.753 120.165 463.527 119.606 462.607 118.488C458.927 114.017 380.267 26.2712 373.827 19.4248C372.14 17.6084 370.3 16.7701 369.533 17.329C368.92 18.0276 360.487 28.367 350.827 40.2434C319.087 79.5054 287.807 117.789 286.58 119.047C285.813 119.745 284.893 120.025 284.28 119.466C283.82 119.047 302.833 94.5954 326.753 65.2537C367.54 15.0934 370.3 12.1593 372.447 14.6743C373.827 16.0715 385.94 29.4848 399.28 44.4351ZM118.987 39.4051C129.873 51.7006 142.14 65.5331 146.28 70.144C150.42 74.8945 158.393 83.697 163.76 89.8448C169.28 95.9926 174.8 102.14 176.027 103.398C178.173 105.773 174.493 105.913 100.587 105.913H22.8467L29.44 97.809C67.3133 50.7226 97.2133 15.0934 98.1333 16.0715C98.7467 16.6304 108.1 27.2493 118.987 39.4051ZM72.5267 26.9698C69.7667 30.3231 69.6133 30.3231 43.8533 30.4629C21.0067 30.4629 18.2467 30.1834 19.0133 28.2273C19.4733 26.9698 19.9333 25.4329 19.9333 24.7343C19.9333 24.0356 31.8933 23.4768 47.5333 23.4768H75.2867L72.5267 26.9698ZM354.2 24.4548C354.2 24.874 353.127 26.5506 351.593 27.9479C349.293 30.3231 343.62 30.4629 237.207 30.4629C135.087 30.4629 124.967 30.3231 122.36 28.0876C120.827 26.8301 119.6 25.2931 119.6 24.5945C119.6 24.0356 172.347 23.4768 236.9 23.4768C301.453 23.4768 354.2 23.8959 354.2 24.4548ZM384.253 37.0298C391 44.4351 398.053 52.3992 400.2 54.7745C402.347 57.1498 412.16 68.1879 422.28 79.3656L440.373 99.6254L374.9 100.045C338.713 100.184 308.967 100.184 308.66 99.9048C308.047 99.2062 369.993 23.4768 371.22 23.4768C371.833 23.4768 377.66 29.4848 384.253 37.0298ZM449.88 25.7123C450.34 26.9698 450.8 28.5068 450.8 29.2054C450.8 29.904 438.38 30.4629 421.973 30.4629C393.147 30.4629 392.993 30.4629 389.467 26.9698L385.94 23.4768H417.373C444.82 23.4768 449.113 23.7562 449.88 25.7123ZM347.147 33.9559C346.38 35.7723 333.193 36.0517 237.207 35.7723C151.8 35.4929 128.187 34.934 127.573 33.5367C127.113 32.2792 149.807 31.8601 237.513 31.8601C335.34 31.8601 347.913 32.1395 347.147 33.9559ZM341.933 39.964C341.933 42.1995 134.78 41.7804 133.86 39.5448C133.553 38.427 165.907 38.0079 237.667 38.1476C320.313 38.1476 341.933 38.5667 341.933 39.964ZM337.027 46.1117C336.413 47.509 315.253 48.0679 238.893 48.3473C153.64 48.6267 141.22 48.3473 139.533 46.5309C137.847 44.7145 148.733 44.4351 237.667 44.4351C316.94 44.4351 337.487 44.8542 337.027 46.1117ZM332.427 51.7006C331.813 53.0979 311.573 53.6567 238.893 53.9362C157.78 54.2156 145.82 53.9362 144.133 52.1198C142.447 50.3034 152.72 50.024 237.667 50.024C313.26 50.024 332.887 50.4431 332.427 51.7006ZM327.06 57.9881C327.367 59.2456 153.793 60.2237 150.573 59.1059C149.5 58.6867 148.887 57.9881 149.193 57.4292C150.267 56.032 326.447 56.5909 327.06 57.9881ZM322 64.6948C320.313 66.5112 309.12 66.7906 238.433 66.7906C167.287 66.7906 156.553 66.5112 155.787 64.6948C155.02 62.8784 164.987 62.599 239.507 62.599C314.333 62.599 323.687 62.8784 322 64.6948ZM317.4 70.2837C315.713 72.1001 305.133 72.3795 239.2 72.3795C173.267 72.3795 162.687 72.1001 161 70.2837C159.313 68.4673 168.207 68.1879 239.2 68.1879C310.193 68.1879 319.087 68.4673 317.4 70.2837ZM312.34 75.8726C311.573 77.689 169.127 79.2259 166.98 77.2698C166.213 76.5712 165.6 75.7329 165.6 75.174C165.6 74.7548 198.72 74.4754 239.2 74.4754C287.653 74.4754 312.647 74.8945 312.34 75.8726ZM306.667 82.8587C304.98 84.6751 295.627 84.9545 239.2 84.9545C182.773 84.9545 173.42 84.6751 171.733 82.8587C170.047 81.0423 177.713 80.7629 239.2 80.7629C300.687 80.7629 308.353 81.0423 306.667 82.8587ZM302.067 88.4476C300.38 90.264 291.947 90.5434 238.74 90.264C191.36 89.9845 177.253 89.4256 176.64 88.0284C176.18 86.7709 189.52 86.3517 239.967 86.3517C296.853 86.3517 303.753 86.6312 302.067 88.4476ZM294.86 98.0884L292.1 101.581L240.427 101.721H188.753L185.533 97.809L182.16 94.0365L239.507 93.3379C270.94 92.9187 296.853 93.0584 297.16 93.6173C297.467 94.1762 296.393 96.272 294.86 98.0884ZM441.6 140.843V177.171H373.367H305.133V140.843V104.516H373.367H441.6V140.843ZM286.733 107.031C286.733 107.59 284.74 110.244 282.133 112.899C279.68 115.554 277.687 118.767 277.533 120.025C277.533 122.819 286.427 126.592 287.96 124.496C291.64 119.745 299.613 110.105 300.073 110.105C300.38 110.105 300.533 125.195 300.533 143.638V177.171H241.5H182.467V143.917L182.62 110.803L186.3 114.855C189.827 118.907 189.98 118.907 193.813 116.532C198.413 113.877 198.72 112.061 195.193 108.428C192.74 106.053 194.273 105.913 239.66 105.913C265.573 105.913 286.733 106.472 286.733 107.031ZM177.867 152.72V195.335H98.9H19.9333V152.72V110.105H98.9H177.867V152.72ZM457.7 182.76C458.313 183.738 412.16 184.157 320.62 184.157C229.54 184.157 182.467 183.738 182.467 182.76C182.467 181.782 229.233 181.363 319.547 181.363C409.4 181.363 457.087 181.782 457.7 182.76ZM463.067 186.952C464.6 187.79 415.84 188.349 323.993 188.349C230.613 188.349 182.467 187.93 182.467 186.952C182.467 184.996 459.847 184.996 463.067 186.952ZM470.12 191.842C472.727 193.658 455.86 193.798 327.827 193.938C199.64 193.938 182.467 193.658 182.467 191.842C182.467 190.026 199.333 189.746 324.76 189.746C447.58 189.746 467.513 190.026 470.12 191.842ZM476.867 196.732C476.867 197.71 426.727 198.13 329.667 198.13C232.607 198.13 182.467 197.71 182.467 196.732C182.467 195.754 232.607 195.335 329.667 195.335C426.727 195.335 476.867 195.754 476.867 196.732ZM482.233 200.924C481.007 202.74 182.467 202.74 182.467 200.784C182.467 200.086 239.353 199.527 332.887 199.527C431.02 199.527 482.847 199.946 482.233 200.924ZM177.867 249.128V293.141H98.9H19.9333V249.128V205.116H98.9H177.867V249.128ZM285.2 210.006C285.2 212.661 285.967 214.896 286.733 214.896C287.653 214.896 288.267 216.154 288.267 217.691C288.267 219.507 289.34 220.485 291.333 220.485C294.247 220.485 294.4 221.463 294.4 249.128C294.4 276.793 294.247 277.771 291.333 277.771C289.34 277.771 288.267 278.749 288.267 280.566C288.267 282.103 287.653 283.36 286.733 283.36C285.967 283.36 285.2 285.596 285.2 288.25C285.2 292.721 284.893 293.141 280.6 293.141H275.847L276 260.585L276.307 228.17L270.787 227.751C266.34 227.331 264.807 226.493 262.967 222.86C257.6 212.94 244.26 209.307 234.6 215.176C231.687 216.992 228.16 220.485 226.933 222.86C225.093 226.353 223.56 227.331 219.42 227.751L214.36 228.17V260.306C214.36 281.963 214.053 290.486 213.133 286.434C211.447 279.308 210.527 277.771 207.613 277.771C205.773 277.771 205.467 273.16 205.467 249.268C205.467 222.301 205.62 220.765 208.38 220.066C210.527 219.647 211.753 217.691 212.367 214.058C212.98 210.984 213.593 207.77 213.9 206.792C214.36 205.535 222.947 205.116 249.933 205.116H285.2V210.006ZM369.687 210.006C371.22 217.271 372.907 220.485 375.053 220.485C376.74 220.485 377.2 224.677 377.2 242.142V263.799H344.233H311.267V242.142C311.267 221.463 311.42 220.485 314.333 220.485C316.327 220.485 317.4 219.507 317.4 217.691C317.4 216.154 318.167 214.896 318.933 214.896C319.853 214.896 320.467 212.661 320.467 210.006V204.976L344.693 205.395L368.767 205.814L369.687 210.006ZM452.333 210.006C452.333 212.661 453.1 214.896 453.867 214.896C454.787 214.896 455.4 216.154 455.4 217.691C455.4 219.507 456.473 220.485 458.467 220.485C461.533 220.485 461.533 221.184 461.227 241.723L460.767 263.1L428.26 263.52L395.6 263.799V242.142C395.6 224.956 396.06 220.485 397.593 220.485C400.047 220.485 403.267 214.617 403.267 210.146C403.267 208.469 403.727 206.513 404.34 206.094C404.8 205.535 415.84 205.116 428.873 205.116H452.333V210.006ZM200.867 249.966V277.911L196.727 277.492L192.433 277.073L191.973 249.408L191.667 221.882H196.267H200.867V249.966ZM306.667 249.827V277.771H302.833H299V249.827V221.882H302.833H306.667V249.827ZM391 249.827V277.771H386.4H381.8V249.827V221.882H386.4H391V249.827ZM473.8 249.966V277.911L469.66 277.492L465.367 277.073L464.907 251.224C464.753 237.112 464.907 224.677 465.213 223.699C465.673 222.721 467.82 221.882 469.967 221.882H473.8V249.966ZM258.827 261.983L258.367 292.442H245.333H232.3L231.84 261.983L231.533 231.663H245.333H259.133L258.827 261.983ZM461.227 271.903C461.687 275.536 461.073 276.793 458.927 277.212C455.553 278.051 452.333 283.919 452.333 289.368C452.333 293.001 451.873 293.28 447.427 292.861L442.367 292.442L441.907 281.404C441.6 275.256 441.753 269.528 442.213 268.55C442.673 267.432 446.047 267.013 451.873 267.152L460.767 267.292L461.227 271.903ZM201.633 298.031C201.173 298.73 200.407 300.546 199.947 301.803C199.333 303.201 198.413 304.318 197.647 304.318C196.88 304.318 196.267 305.576 196.267 307.113C196.267 308.65 195.653 309.907 194.733 309.907C193.967 309.907 193.2 311.444 193.2 313.4C193.2 315.356 192.587 316.893 191.667 316.893C190.9 316.893 190.133 318.151 190.133 319.688C190.133 322.482 189.06 322.482 98.9 322.482H7.66667V309.488V296.634H105.033C169.433 296.634 202.093 297.053 201.633 298.031ZM487.6 309.488V322.482H392.687H297.773L296.853 316.195C296.24 312.562 294.707 309.348 293.173 308.51C291.793 307.811 291.18 307.113 291.947 307.113C292.713 307.113 292.253 305.995 291.027 304.598C289.647 303.34 288.267 300.965 287.653 299.428C286.733 296.634 287.5 296.634 387.167 296.634H487.6V309.488ZM294.4 320.386C294.4 322.203 287.807 322.482 244.567 322.482C201.327 322.482 194.733 322.203 194.733 320.386C194.733 318.57 201.327 318.291 244.567 318.291C287.807 318.291 294.4 318.57 294.4 320.386Z" fill="black"/>
<path d="M83.26 66.0919C77.1266 68.4672 75.1333 71.9603 75.1333 80.623C75.1333 91.2419 79.4266 95.1541 92.1533 95.8528C103.653 96.4116 109.173 94.8747 112.853 89.8447C115.92 85.653 116.227 75.7328 113.62 71.1219C109.787 64.6947 93.6866 61.9003 83.26 66.0919Z" fill="black"/>
<path d="M357.113 62.7387C353.433 66.3715 352.667 68.3276 352.667 74.0562C352.667 79.7849 353.433 81.6012 357.113 85.0943C361.253 88.8668 362.48 89.1462 372.6 89.1462C385.173 89.1462 388.547 87.8887 391.767 82.1601C394.68 76.9904 394.68 71.9604 391.767 66.0921C388.547 60.2237 383.947 58.4074 371.68 58.4074C362.327 58.4074 361.253 58.6868 357.113 62.7387Z" fill="black"/>
<path d="M324.147 117.649C323.84 118.488 323.687 130.644 323.84 144.336L324.3 169.486L339.48 169.906C350.673 170.185 355.12 169.766 356.04 168.508C356.653 167.53 357.267 155.654 357.267 142.101C357.267 121.282 356.96 117.23 354.967 116.532C350.367 114.995 324.913 115.833 324.147 117.649Z" fill="black"/>
<path d="M392.38 117.23C391.46 117.649 391.153 128.827 391.307 143.777L391.767 169.486H407.867H423.967V142.939V116.392H408.94C400.507 116.392 393.147 116.811 392.38 117.23Z" fill="black"/>
<path d="M226.167 117.37C225.707 118.488 225.553 130.644 225.707 144.336L226.167 169.486H242.267H258.367L258.827 143.777C259.133 125.753 258.673 117.649 257.447 116.951C256.527 116.532 249.32 115.973 241.347 115.833C230.46 115.554 226.627 115.973 226.167 117.37Z" fill="black"/>
<path d="M50.14 127.709C49.5267 128.268 49.0667 140.284 49.0667 154.396V179.966L60.26 180.105C66.24 180.105 72.68 180.385 74.3667 180.664C76.0533 181.083 78.66 180.944 80.1933 180.524C82.6467 179.826 82.8 177.59 82.4933 153.698L82.0333 127.57L66.5467 127.151C58.1133 127.011 50.7533 127.151 50.14 127.709Z" fill="black"/>
<path d="M117.607 127.71C116.993 128.268 116.533 140.285 116.533 154.397C116.533 179.966 116.533 179.966 120.06 180.105C124.66 180.245 144.287 180.245 147.66 180.105C150.113 179.966 150.267 178.01 149.96 153.698L149.5 127.57L134.013 127.151C125.58 127.011 118.22 127.151 117.607 127.71Z" fill="black"/>
<path d="M49.0667 247.032V273.58H65.1667H81.2667V247.032V220.485H65.1667H49.0667V247.032Z" fill="black"/>
<path d="M116.533 247.032V273.58H132.633C147.967 273.58 148.733 273.44 149.5 270.366C149.96 268.689 150.113 256.953 149.96 244.238L149.5 221.184L133.093 220.765L116.533 220.345V247.032Z" fill="black"/>
<path d="M325.833 217.691C324.147 220.206 325.373 257.372 327.213 258.489C329.207 259.747 352.973 259.887 356.347 258.769C360.027 257.511 360.027 218.389 356.347 217.132C352.36 215.734 326.907 216.154 325.833 217.691Z" fill="black"/>
<path d="M412.313 229.148C412.16 234.737 412.007 243.679 411.853 248.849C411.7 254.158 412.007 259.048 412.62 259.747C413.08 260.585 420.133 261.005 428.72 260.725L443.9 260.306L444.36 239.627L444.82 219.088H428.567H412.467L412.313 229.148Z" fill="black"/>
<path d="M234.6 248.43V262.542L245.793 262.122L256.833 261.703L257.293 251.224C258.06 234.597 257.907 234.457 245.333 234.457H234.6V248.43Z" fill="black"/>
</svg>
