<svg width="340" height="178" viewBox="0 0 340 178" fill="none" xmlns="http://www.w3.org/2000/svg">
<path d="M145.801 4.26523L141.828 8.56274H116.736H91.6096V12.9249V17.2547L94.4278 17.3516L97.2121 17.4486L97.3139 24.945L97.3818 32.4737H77.79H58.1643L29.0991 60.1329L0 87.8244L3.93874 92.2835L7.84352 96.7749H15.7889H23.7003V134.095V171.416H18.4374H13.1744V174.486V177.555H176.326H339.478V174.486V171.416H333.197H326.915V131.995C326.915 104.045 327.017 92.5743 327.289 92.5743C327.628 92.5743 333.774 88.1475 334.079 87.6628C334.147 87.5659 324.98 79.1647 313.673 69.0187L293.13 50.6008L282.604 50.5685H272.078L245.356 25.365L218.668 0.161589L184.204 0.096965L149.74 2.8614e-05L145.801 4.26523ZM191.266 43.2983C228.141 78.8739 227.937 78.6801 227.937 78.9709C227.937 79.1001 226.613 80.5542 224.983 82.2021L222.029 85.1425L185.969 51.1178C166.14 32.4414 149.808 17.1255 149.638 17.1255C149.502 17.1255 134.46 33.3785 116.227 53.2181L83.053 89.3108L79.7254 86.5319C76.9072 84.1731 76.4318 83.6561 76.7714 83.2361C77.2468 82.6545 90.9984 67.597 116.532 39.7439C126.787 28.5316 138.467 15.7683 142.508 11.3739L149.808 3.36049L157.142 10.4045C161.183 14.282 176.53 29.0809 191.266 43.2983ZM139.859 10.7277C139.689 11.0508 138.942 11.8586 138.229 12.5371L136.905 13.7327L115.208 13.6681L93.4771 13.5711L93.3752 11.8586L93.2733 10.1783H116.736C138.976 10.1783 140.165 10.2107 139.859 10.7277ZM115.717 27.2392V37.159L108.078 45.4955L100.438 53.832V35.5434V17.2547L108.078 17.287L115.717 17.3193V27.2392ZM157.142 27.1422C157.482 27.53 157.006 28.2408 154.324 31.2459C152.558 33.2492 139.01 48.4036 124.24 64.9474L97.3818 94.9977V133.191V171.416H95.6841H93.9864V131.995V92.5743L95.6162 92.542H97.2121L125.225 61.3284C140.64 44.203 153.916 29.3718 154.765 28.4347C155.614 27.4653 156.395 26.6898 156.497 26.6898C156.633 26.6575 156.904 26.8837 157.142 27.1422ZM195.782 63.6549L213.507 80.4572L213.608 122.528L213.676 164.63H201.045H188.38V143.304V121.978H157.991H127.601V143.304V164.63H114.359H101.117V131.381V98.1643L130.148 65.626C146.107 47.725 159.587 32.5707 160.096 31.989L161.047 30.9227L169.535 38.9038C174.221 43.2983 186.003 54.4137 195.782 63.6549ZM309.904 69.8589L328.002 85.9503L309.021 86.1119L290.074 86.2734L288.954 87.0812L287.833 87.889L280.193 87.7921C272.69 87.6628 272.588 87.6951 272.588 88.3414V89.0199H246.612H220.637V130.218V171.416H219.279H217.921V128.118C217.921 104.304 218.023 84.8194 218.158 84.8194C218.294 84.8194 219.279 85.6272 220.298 86.5965L222.199 88.3737L223.014 87.5659L223.795 86.7581H255.339H286.849L293.673 82.0082L300.498 77.226L287.969 65.529L275.474 53.832L283.657 53.7997H291.84L309.904 69.8589ZM321.075 114.45L320.973 136.357H299.683C287.935 136.357 278.36 136.26 278.36 136.099C278.36 135.969 278.36 126.114 278.36 114.223V92.5743H299.751H321.143L321.075 114.45ZM272.588 127.956V162.045H247.461H222.335V127.956V93.8668H247.461H272.588V127.956ZM28.7935 134.095V171.416H26.926H25.0585V134.095V96.7749H26.926H28.7935V134.095ZM92.2886 129.572V162.368H62.7481H33.2076V129.572V96.7749H62.7481H92.2886V129.572ZM133.034 148.636C133.034 171.19 133.034 171.416 132.355 171.416C131.676 171.416 131.676 171.19 131.676 148.636C131.676 126.082 131.676 125.856 132.355 125.856C133.034 125.856 133.034 126.082 133.034 148.636ZM136.09 148.636V171.416H135.071H134.053V148.636V125.856H135.071H136.09V148.636ZM138.806 148.636V171.416H137.958H137.109V148.636V125.856H137.958H138.806V148.636ZM141.862 148.636V171.416H140.844H139.825V148.636V125.856H140.844H141.862V148.636ZM144.918 148.636V171.416H143.9H142.881V148.636V125.856H143.9H144.918V148.636ZM147.635 148.636V171.416H146.718H145.767L145.835 148.733C145.903 136.228 145.937 125.985 145.937 125.92C145.937 125.888 146.31 125.856 146.786 125.856H147.635V148.636ZM150.691 148.636V171.416H149.672H148.653V148.636V125.856H149.672H150.691V148.636ZM153.407 148.636V171.416H152.558H151.709V148.636V125.856H152.558H153.407V148.636ZM156.123 148.636V171.416H155.274H154.426V148.636V125.856H155.274H156.123V148.636ZM161.556 148.636V171.416H160.707H159.858V148.636V125.856H160.707H161.556V148.636ZM164.272 148.636V171.416H163.424H162.575V148.636V125.856H163.424H164.272V148.636ZM167.328 148.636V171.416H166.31H165.291V148.636V125.856H166.31H167.328V148.636ZM170.113 147.731C170.181 159.784 170.181 170.026 170.113 170.511C170.011 171.222 169.807 171.416 169.162 171.416H168.347V148.636V125.856H169.196H170.045L170.113 147.731ZM173.101 148.636V171.416H172.082H171.063V148.636V125.856H172.082H173.101V148.636ZM176.157 148.636V171.416H175.138H174.119V148.636V125.856H175.138H176.157V148.636ZM178.873 148.636V171.416H178.024H177.175V148.636V125.856H178.024H178.873V148.636ZM181.929 148.636V171.416H180.91H179.892V148.636V125.856H180.91H181.929V148.636ZM184.306 148.636C184.306 171.19 184.306 171.416 183.627 171.416C182.947 171.416 182.947 171.19 182.947 148.636C182.947 126.082 182.947 125.856 183.627 125.856C184.306 125.856 184.306 126.082 184.306 148.636ZM281.755 150.898V162.045H280.058H278.36L278.326 151.544C278.292 145.76 278.258 140.849 278.224 140.622C278.088 139.879 278.394 139.75 280.092 139.75H281.755V150.898ZM286.849 150.898V162.045H284.981H283.114V150.898V139.75H284.981H286.849V150.898ZM291.772 150.898V161.884H289.972H288.173V150.898C288.207 144.855 288.207 139.879 288.207 139.815C288.207 139.75 289.022 139.75 290.006 139.815L291.772 139.912V150.898ZM296.695 150.93V162.078L294.93 161.981L293.13 161.884L293.028 150.801L292.96 139.75H294.828H296.695V150.93ZM301.721 150.801L301.619 161.884L299.853 161.981L298.054 162.078V150.93V139.75H299.921H301.789L301.721 150.801ZM306.712 150.898V161.884H304.845H302.977L302.875 151.221C302.841 145.372 302.875 140.364 302.977 140.138C303.079 139.847 303.69 139.75 304.912 139.815L306.712 139.912V150.898ZM311.635 150.93V162.078L309.87 161.981L308.07 161.884L307.968 150.801L307.9 139.75H309.768H311.635V150.93ZM316.661 150.801L316.559 161.884L314.793 161.981L312.994 162.078V150.93V139.75H314.861H316.729L316.661 150.801ZM321.143 150.93V162.078L319.547 161.981L317.917 161.884L317.815 150.801L317.747 139.75H319.445H321.143V150.93ZM272.588 167.377V171.416H247.461C222.573 171.416 222.335 171.416 222.335 170.77C222.301 170.414 222.301 168.669 222.301 166.892C222.301 165.115 222.301 163.596 222.335 163.499C222.335 163.402 233.642 163.338 247.461 163.338H272.588V167.377ZM92.2886 167.538V171.416H62.7481H33.2076V167.538V163.661H62.7481H92.2886V167.538ZM127.601 168.669V171.416H114.359H101.117V168.669V165.923H114.359H127.601V168.669ZM213.507 168.669V171.416H200.943H188.38V168.669V165.923H200.943H213.507V168.669Z" fill="black"/>
<path d="M154.154 52.2488C152.015 52.7012 152.558 52.8627 155.105 52.5073C157.685 52.1519 161.081 52.5396 163.593 53.4444C167.464 54.8338 170.588 58.0327 172.354 62.3948L173.27 64.6244L173.372 76.3213L173.474 88.0506L157.074 88.1153L140.674 88.2122L140.572 89.4078L140.47 90.6356H157.957H175.477V78.4216C175.477 68.5018 175.376 65.8522 174.968 64.3335C173.304 58.2589 168.245 53.412 162.303 52.2165C160.164 51.7964 156.191 51.7964 154.154 52.2488Z" fill="black"/>
<path d="M158.161 61.9101V68.6633H164.646H171.097L170.86 67.1123C169.977 61.2962 165.529 56.7078 159.621 55.48L158.161 55.1569V61.9101Z" fill="black"/>
<path d="M151.981 55.8677C149.876 56.5785 147.838 57.871 146.209 59.5512C144.375 61.4253 143.424 63.1056 142.711 65.6582C141.828 68.9218 141.319 68.6633 148.653 68.6633H155.105V62.0393V55.4153H154.188C153.645 55.4476 152.694 55.6415 151.981 55.8677Z" fill="black"/>
<path d="M142.202 78.8416V85.7887H148.653H155.105V78.8416V71.8945H148.653H142.202V78.8416Z" fill="black"/>
<path d="M158.161 78.8416V85.7887H164.612H171.063V78.8416V71.8945H164.612H158.161V78.8416Z" fill="black"/>
<path d="M177.175 90.4739V91.6048L158.942 91.6695L140.674 91.7664L143.356 94.416L146.039 97.0979H164.306H182.608V95.9993C182.608 95.0945 182.166 94.4806 179.892 92.1218L177.175 89.343V90.4739Z" fill="black"/>
<path d="M113.341 107.276V110.992H152.728H192.115V107.276V103.56H152.728H113.341V107.276Z" fill="black"/>
<path d="M195.103 109.441L195.001 112.769H154.663C132.491 112.769 114.359 112.834 114.393 112.931C114.393 113.028 116.498 114.643 119.045 116.55L123.697 120.04H164.34H204.95V116.679L204.984 113.319L200.502 109.958C198.023 108.116 195.85 106.501 195.613 106.372C195.307 106.178 195.171 106.953 195.103 109.441Z" fill="black"/>
<path d="M236.494 104.724C236.698 104.821 242.402 105.144 249.125 105.434C255.848 105.758 261.417 106.081 261.519 106.145C261.79 106.436 261.79 107.276 261.756 122.851L261.722 138.457H246.748H231.774L234.219 141.042L236.664 143.627H251.909H267.155V142.561C267.155 141.753 266.748 141.075 265.287 139.524L263.42 137.553V121.041V104.53L249.77 104.562C242.232 104.562 236.256 104.659 236.494 104.724Z" fill="black"/>
<path d="M233.879 121.817V135.873H239.821H245.764V121.817V107.761H239.821H233.913L233.879 121.817Z" fill="black"/>
<path d="M247.801 121.817V135.873H253.743H259.685V121.817V107.761H253.743H247.801V121.817Z" fill="black"/>
<path d="M59.862 103.851C59.1829 104.013 59.9978 104.142 62.4086 104.239C65.3287 104.368 66.3134 104.562 67.9093 105.241C71.4405 106.792 74.1229 109.797 75.549 113.803C75.9905 115.064 76.1263 117.228 76.2281 125.597L76.364 135.873H61.7635H47.129V137.003V138.134H62.5784H78.0277V127.213C78.0277 118.166 77.9259 115.968 77.4845 114.514C75.7528 108.86 71.3726 104.885 65.8041 103.884C63.8347 103.528 61.4239 103.528 59.862 103.851Z" fill="black"/>
<path d="M56.3986 107.47C52.5957 108.86 49.1323 113.125 48.623 117.067L48.3853 118.747L54.1236 118.683L59.862 118.586L59.9638 112.673L60.0317 106.792L59.115 106.824C58.5717 106.824 57.3493 107.115 56.3986 107.47Z" fill="black"/>
<path d="M62.7481 112.769V118.747H68.3846H74.055L73.8513 117.067C73.342 113.125 69.8447 108.827 65.9738 107.47C62.5444 106.242 62.7481 105.919 62.7481 112.769Z" fill="black"/>
<path d="M48.4872 127.633V133.934L54.1916 133.869L59.862 133.772V127.633V121.493L54.1916 121.396L48.4872 121.332V127.633Z" fill="black"/>
<path d="M62.7482 127.633V133.934H68.3507H73.9532V127.633V121.332H68.3507H62.7482V127.633Z" fill="black"/>
<path d="M79.3859 138.037V139.104H63.2235H47.0272L49.37 141.495L51.7129 143.886L67.9432 143.918L84.1396 143.95V142.787C84.1396 141.786 83.834 141.301 81.7627 139.297L79.3859 137.003V138.037Z" fill="black"/>
<path d="M223.693 167.215V170.123H247.291H270.89V167.215V164.307H247.291H223.693V167.215Z" fill="black"/>
<path d="M34.5658 167.7V170.77L62.85 170.705L91.1002 170.608V167.7V164.792L62.85 164.695L34.5658 164.63V167.7Z" fill="black"/>
</svg>
